<?xml version="1.0" standalone="no"?>
<!DOCTYPE svg PUBLIC "-//W3C//DTD SVG 20010904//EN"
 "http://www.w3.org/TR/2001/REC-SVG-20010904/DTD/svg10.dtd">
<svg version="1.0" xmlns="http://www.w3.org/2000/svg"
 width="1024.000000pt" height="1024.000000pt" viewBox="0 0 1024.000000 1024.000000"
 preserveAspectRatio="xMidYMid meet">
<metadata>
Created by potrace 1.14, written by Peter Selinger 2001-2017
</metadata>
<g transform="translate(0.000000,1024.000000) scale(0.100000,-0.100000)"
fill="#000000" stroke="none">
<path d="M5836 9473 c-115 -58 -210 -91 -283 -98 -130 -13 -123 -9 -123 -69 0
-45 -6 -62 -41 -117 -59 -91 -145 -187 -189 -209 -20 -10 -58 -24 -84 -31 -25
-6 -49 -15 -52 -20 -3 -5 -14 -9 -24 -9 -10 0 -21 -4 -24 -9 -6 -8 125 16 207
39 21 6 88 18 150 26 167 23 181 26 192 34 28 23 179 50 273 50 127 0 154 -6
169 -35 12 -27 16 -24 -64 -45 -24 -6 -43 -15 -43 -20 0 -5 19 -14 43 -20 23
-5 60 -15 82 -22 l40 -13 12 -75 c6 -41 20 -103 31 -137 11 -34 18 -64 15 -67
-6 -6 24 -92 43 -120 24 -37 101 -42 259 -17 72 12 158 31 192 42 34 11 70 19
80 18 10 -1 26 1 36 4 40 15 47 15 72 -5 30 -23 47 -12 37 25 -4 16 -2 19 11
14 11 -4 36 17 83 69 62 70 70 75 98 70 43 -9 150 -60 173 -83 11 -11 40 -23
64 -26 l45 -6 29 52 c16 28 46 70 67 93 21 23 38 44 38 47 0 3 -15 9 -32 12
-41 8 -56 19 -90 70 -53 76 -105 127 -125 121 -10 -3 -47 -6 -83 -6 -90 -1
-219 -20 -227 -33 -4 -6 -10 -52 -14 -101 -4 -50 -12 -103 -19 -119 -21 -44
-112 -107 -215 -148 -188 -74 -274 -91 -378 -74 -75 12 -88 41 -126 282 -17
105 -18 130 -7 183 16 75 52 122 125 161 105 55 105 79 3 79 -131 0 -239 87
-316 253 -9 20 -18 36 -19 36 -1 -1 -42 -22 -91 -46z m-114 -140 c6 -16 10
-33 9 -40 -1 -6 3 -14 9 -18 16 -10 11 -25 -9 -25 -25 0 -143 38 -155 50 -16
16 15 40 53 40 20 0 43 5 51 10 23 15 30 12 42 -17z m-137 -143 c59 -16 139
-48 143 -58 1 -5 -21 -13 -50 -17 -29 -3 -98 -13 -153 -20 -55 -7 -113 -18
-128 -24 -60 -23 -63 -5 -9 49 30 30 48 39 92 45 33 5 46 10 33 12 -13 3 -23
8 -23 13 0 11 31 19 50 13 8 -3 29 -9 45 -13z m550 -11 c13 -13 -12 -29 -47
-29 -32 0 -44 15 -27 36 13 16 55 12 74 -7z m-335 -78 c0 -11 -49 -21 -67 -14
-7 3 -10 9 -7 14 7 12 74 12 74 0z m-90 -10 c0 -11 -79 -25 -106 -19 -15 4 33
16 99 27 4 0 7 -3 7 -8z m1313 -140 c14 -6 27 -21 31 -37 4 -15 19 -41 33 -58
39 -46 10 -44 -53 5 -88 68 -94 121 -11 90z m251 -217 c21 -8 21 -34 0 -34 -8
0 -25 5 -36 11 -17 9 -18 13 -7 20 17 10 23 11 43 3z"/>
<path d="M4522 9463 c-20 -7 16 -43 42 -43 12 0 30 -7 40 -15 11 -8 25 -15 32
-15 7 0 25 -11 40 -25 24 -22 26 -30 18 -52 -17 -49 -124 -107 -124 -68 0 8
-4 15 -8 15 -5 0 -17 15 -26 33 -34 61 -96 85 -96 36 0 -22 -28 -26 -36 -5
-15 39 -74 16 -74 -28 0 -13 -3 -16 -8 -9 -5 7 -20 0 -47 -23 -27 -22 -34 -34
-23 -34 9 0 18 6 21 13 2 6 8 8 13 4 5 -5 -4 -20 -21 -35 -26 -22 -27 -25 -8
-20 32 8 36 -5 15 -44 -17 -29 -24 -33 -67 -36 -38 -3 -52 1 -70 18 -18 17
-30 20 -55 15 -29 -6 -31 -9 -29 -48 2 -56 -10 -225 -22 -312 -13 -90 -41
-176 -79 -242 -25 -43 -36 -53 -65 -59 -51 -9 -161 8 -260 41 -11 4 -1 -5 22
-19 45 -29 176 -66 229 -66 59 0 115 66 164 197 18 48 23 89 29 235 4 113 11
182 19 190 8 8 35 7 112 -7 62 -10 118 -15 143 -11 23 4 98 36 166 72 69 35
130 63 137 60 13 -5 6 -59 -15 -110 -7 -17 -8 -32 -3 -35 14 -9 21 -88 9 -100
-7 -7 -7 -11 -1 -11 6 0 11 -6 11 -13 0 -20 34 -67 44 -61 5 3 9 1 9 -4 0 -4
-19 -19 -42 -33 -24 -13 -50 -28 -60 -34 -9 -5 -44 -26 -78 -45 -35 -19 -57
-36 -51 -38 9 -3 9 -7 0 -18 -13 -16 -33 -19 -24 -4 10 17 -4 11 -43 -16 -20
-15 -29 -24 -19 -21 9 4 17 3 17 -1 0 -12 -60 -65 -67 -59 -3 3 -12 0 -20 -8
-8 -8 -19 -15 -26 -15 -6 0 8 14 31 31 79 58 33 43 -65 -22 -250 -163 -400
-300 -624 -569 -305 -366 -496 -674 -599 -965 -90 -252 -132 -386 -150 -475
-83 -400 -101 -586 -101 -1045 1 -402 27 -784 52 -744 9 16 7 19 42 -53 15
-32 22 -58 17 -58 -6 0 -14 8 -17 18 -4 9 -15 28 -25 41 l-18 24 0 -46 c0 -60
34 -200 57 -237 10 -15 43 -47 73 -71 77 -60 130 -115 130 -133 0 -9 -4 -16
-10 -16 -14 0 -140 61 -146 71 -3 5 -13 9 -22 9 -19 1 -52 59 -52 93 0 12 -6
33 -13 47 -16 31 -69 184 -93 270 -10 36 -20 58 -22 50 -1 -8 11 -62 28 -120
17 -58 35 -118 40 -135 62 -217 77 -255 97 -255 22 0 62 -35 140 -125 29 -33
53 -65 53 -71 0 -20 -23 -31 -89 -43 -36 -6 -72 -18 -80 -27 -15 -15 -11 -16
41 -9 31 3 73 3 93 -1 34 -6 36 -8 30 -38 l-5 -31 16 32 c18 34 45 48 111 57
30 4 46 2 57 -10 9 -8 16 -17 16 -19 0 -1 -18 -58 -41 -124 -24 -74 -39 -135
-37 -154 3 -27 5 -29 12 -12 30 74 48 106 59 102 16 -5 45 -120 46 -179 1 -33
5 -48 14 -48 7 0 28 -20 47 -45 18 -25 35 -43 37 -41 2 1 -2 38 -7 82 -7 52
-23 104 -46 153 -40 86 -42 104 -12 125 33 24 48 20 55 -15 4 -23 23 -45 70
-81 60 -48 91 -90 107 -148 22 -77 111 -339 124 -365 l15 -30 14 40 c22 63 38
68 88 24 42 -37 185 -314 185 -358 0 -38 20 -92 31 -85 5 3 9 27 9 53 0 93 42
90 148 -13 74 -70 105 -118 163 -249 67 -148 100 -249 106 -323 6 -68 1 -76
-51 -76 -25 0 -66 22 -170 94 -75 51 -150 100 -165 109 -15 8 -50 29 -77 46
-27 17 -65 39 -85 49 -20 11 -65 52 -99 92 -35 39 -68 72 -75 72 -7 0 -20 -9
-29 -19 -17 -19 -17 -22 5 -60 l23 -41 -22 -23 c-12 -13 -22 -28 -22 -34 0 -5
-17 -34 -39 -64 -21 -30 -47 -72 -58 -94 -24 -47 -76 -207 -93 -285 -7 -30
-16 -68 -21 -84 -12 -39 -11 -163 1 -185 15 -28 65 -44 118 -38 26 3 56 2 67
-3 15 -6 7 -9 -29 -9 -29 -1 -56 -7 -66 -16 -22 -20 -206 -58 -248 -51 -47 7
-62 -27 -62 -142 0 -48 -5 -93 -10 -98 -7 -7 11 -14 56 -23 80 -14 117 -32
157 -75 19 -20 27 -24 23 -13 -19 56 -18 65 9 83 22 15 31 15 63 5 67 -22 166
-49 207 -56 55 -9 197 -56 213 -70 10 -9 8 -17 -12 -38 -31 -34 -44 -34 -52
-2 -6 25 -18 32 -28 16 -11 -17 45 -146 77 -179 45 -47 174 -132 201 -132 17
0 37 22 84 94 51 77 71 98 106 115 25 11 47 25 51 31 3 5 16 8 29 4 15 -3 30
3 49 20 23 21 38 26 83 26 29 0 54 4 54 9 0 10 -136 7 -169 -4 -15 -4 -24 1
-37 20 -16 25 -16 29 1 83 26 85 43 112 76 124 32 11 38 25 14 34 -20 8 -19
28 4 100 11 32 25 77 30 100 7 27 19 44 34 51 31 14 79 5 95 -19 19 -27 32
-22 32 12 0 17 2 30 5 30 14 0 71 -34 78 -46 4 -8 21 -14 37 -14 16 0 32 -5
36 -11 10 -16 125 -69 151 -69 74 0 479 261 502 323 14 37 -81 356 -142 477
-31 61 -36 66 -85 82 -40 13 -63 15 -100 8 -105 -20 -315 -108 -391 -165 -19
-14 -40 -25 -46 -25 -7 0 -31 -13 -53 -30 -47 -33 -62 -37 -62 -15 0 28 -19
15 -40 -25 -16 -30 -26 -40 -45 -40 -34 0 -33 17 11 153 54 168 104 257 202
359 98 102 162 138 247 138 66 0 109 -17 99 -39 -4 -9 -9 -29 -12 -45 -7 -44
18 -28 48 30 53 103 167 184 260 184 30 0 30 -1 30 -56 0 -48 2 -55 14 -45 8
7 20 35 26 63 11 43 19 54 57 78 56 36 99 46 119 29 12 -10 20 -7 42 14 15 14
70 41 122 60 52 19 135 48 184 66 96 35 115 32 95 -13 -16 -34 0 -47 46 -39
32 5 156 61 165 73 16 23 130 13 130 -11 0 -5 7 -9 15 -9 8 0 15 -7 15 -15 0
-10 10 -15 33 -15 51 0 94 16 129 49 33 31 62 39 73 21 8 -12 -21 -193 -41
-253 -24 -74 -8 -68 27 9 17 38 42 93 55 121 13 29 32 86 43 127 24 91 58 157
110 215 32 36 53 79 42 86 -6 3 -14 -3 -20 -12 -5 -10 -13 -14 -17 -10 -5 5
-4 11 1 15 12 9 85 119 85 129 0 4 -50 -43 -111 -105 l-110 -112 -52 1 -52 0
30 22 c60 43 261 259 381 407 35 43 73 85 84 93 11 8 45 48 76 88 50 68 143
187 204 263 14 17 34 42 43 56 10 14 31 43 48 65 48 64 77 111 110 176 34 66
34 89 0 37 -27 -43 -27 -30 1 24 44 89 91 159 98 147 6 -8 9 -8 15 0 4 7 2 18
-4 25 -11 13 3 36 23 36 11 0 51 79 81 160 9 25 21 54 26 65 21 48 98 299 120
393 13 56 28 102 34 102 5 -1 26 -14 45 -30 25 -22 45 -30 72 -30 41 0 57 -18
53 -58 -1 -13 2 -25 7 -28 4 -3 8 6 8 20 0 14 5 26 10 26 13 0 13 -13 -4 -57
-22 -59 -39 -231 -28 -284 9 -46 57 -119 78 -119 7 0 36 -11 66 -25 29 -13 78
-28 108 -33 l55 -7 -3 -85 c-4 -95 -47 -503 -63 -593 -5 -31 -7 -61 -4 -66 3
-5 0 -22 -6 -38 -6 -15 -20 -81 -30 -146 -11 -65 -26 -132 -35 -148 -8 -17
-12 -39 -9 -50 5 -16 -15 -136 -44 -254 l-7 -30 -82 0 c-45 1 -87 6 -92 11
-23 23 89 174 177 241 40 30 37 42 -4 17 -119 -75 -229 -212 -264 -328 -40
-132 -43 -139 -79 -160 -26 -16 -61 -22 -150 -27 -127 -7 -169 -20 -267 -81
-147 -92 -243 -268 -243 -442 1 -65 7 -107 43 -286 l13 -65 12 49 c7 26 19 55
27 63 8 8 18 26 22 41 3 14 17 41 30 60 12 19 23 41 23 48 0 8 4 14 10 14 5 0
21 24 35 53 50 105 126 214 214 307 39 41 71 78 71 81 0 3 25 26 55 50 30 24
58 52 61 62 3 9 10 15 15 12 5 -4 9 -2 9 3 0 10 125 90 173 110 39 17 43 1 27
-122 -6 -55 -13 -130 -15 -166 -3 -98 -7 -112 -88 -330 -13 -36 -50 -116 -80
-178 l-56 -113 25 -10 c33 -12 167 -49 217 -59 21 -4 40 -10 43 -13 14 -14
-36 -360 -56 -380 -4 -5 -19 3 -33 17 -35 35 -58 33 -25 -1 14 -16 31 -38 37
-50 6 -13 17 -23 24 -23 22 0 57 131 72 271 8 74 18 158 21 188 5 40 4 52 -4
47 -23 -14 -8 29 58 169 15 33 38 83 50 110 12 28 28 64 35 80 8 17 20 51 27
77 12 45 33 68 48 51 16 -17 100 -383 100 -432 0 -13 -7 -21 -17 -21 -17 0
-148 85 -191 124 -20 17 -24 18 -32 6 -19 -29 -12 -43 19 -37 23 5 31 1 41
-18 7 -13 53 -61 102 -106 96 -88 172 -184 238 -300 53 -94 57 -98 65 -63 4
16 15 56 24 89 10 33 24 83 31 110 7 28 22 58 34 68 20 17 20 17 -19 1 -94
-38 -179 -56 -212 -43 -41 15 -38 36 12 81 36 33 49 53 54 85 7 36 6 42 -14
51 -14 7 -29 32 -44 74 -24 69 -97 244 -112 268 -5 8 -19 35 -31 60 -21 44
-21 45 -3 135 24 128 23 125 53 125 l27 0 -25 19 -24 19 17 89 c9 48 18 104
20 123 2 31 6 36 37 41 30 5 31 7 8 8 -31 1 -53 33 -43 59 4 9 13 121 21 247
13 206 16 232 34 246 10 9 16 19 13 23 -3 3 -12 1 -19 -5 -30 -25 -36 1 -30
135 6 127 25 672 26 729 0 16 10 36 25 49 33 29 44 71 52 206 3 61 9 112 12
112 4 0 17 -48 30 -107 13 -60 31 -121 40 -138 10 -16 30 -75 45 -130 15 -55
31 -111 36 -125 46 -130 108 -383 150 -610 12 -63 35 -182 51 -265 32 -157 32
-168 47 -700 7 -244 8 -257 20 -205 34 142 21 616 -24 860 -3 14 -14 79 -24
145 -11 66 -29 158 -39 205 -60 260 -74 342 -59 351 8 5 6 12 -5 24 -10 9 -15
21 -11 26 3 6 1 15 -4 22 -5 7 -12 30 -15 52 -3 22 -9 51 -13 65 -5 20 -4 23
7 13 7 -7 14 -18 16 -25 1 -7 6 -30 12 -50 5 -21 6 -38 3 -38 -3 0 2 -6 12
-13 11 -8 17 -20 14 -28 -3 -8 1 -20 8 -27 8 -7 18 -21 23 -30 5 -9 12 -14 16
-11 3 4 -29 110 -71 238 -42 127 -74 237 -71 244 3 8 31 27 62 43 131 65 245
208 245 304 0 43 -12 63 -114 185 -34 40 -38 49 -28 66 38 62 38 59 22 70 -12
9 -12 10 4 5 16 -5 18 -2 12 21 -14 60 -13 79 5 141 22 76 19 74 -42 -26 -26
-42 -53 -80 -61 -85 -14 -10 -61 16 -143 78 -103 78 -121 105 -136 207 -10 69
-9 78 10 115 11 23 40 58 64 79 30 26 46 50 51 73 6 33 5 32 -54 -30 -33 -35
-60 -61 -60 -58 0 4 7 23 15 42 22 53 18 67 -7 27 -13 -19 -32 -45 -44 -58
l-21 -23 -12 133 c-6 73 -15 149 -18 168 -4 19 -5 41 -4 48 1 7 -5 15 -14 18
-10 4 -12 10 -7 18 15 19 22 62 16 96 -5 23 -17 36 -48 52 -22 11 -69 48 -104
82 -63 60 -64 62 -58 104 3 23 17 59 31 79 13 20 23 39 20 41 -8 8 -47 -27
-73 -65 -37 -53 -43 -19 -8 43 29 52 30 54 17 54 -6 0 -18 -13 -28 -30 -29
-51 -45 -42 -58 33 l-6 38 -45 -51 c-26 -28 -55 -50 -65 -50 -20 0 -64 28
-216 139 -63 46 -83 56 -83 42 0 -9 11 -32 25 -51 14 -19 25 -47 25 -63 0 -15
4 -36 9 -45 15 -30 19 -150 6 -189 -8 -23 -11 -68 -8 -128 5 -85 3 -95 -20
-132 -30 -47 -53 -113 -73 -206 -12 -57 -12 -100 -4 -245 13 -228 32 -338 75
-427 32 -68 33 -73 25 -140 -23 -178 -70 -356 -155 -580 -14 -38 -27 -74 -28
-80 -1 -5 -5 -12 -8 -15 -3 -3 -26 -43 -51 -90 -65 -121 -331 -514 -478 -705
-42 -55 -93 -125 -113 -156 -65 -99 -483 -506 -516 -502 -165 19 -215 35 -208
65 3 10 1 18 -4 18 -22 0 -6 43 26 71 37 33 48 57 18 40 -10 -5 -33 -23 -51
-40 -25 -24 -31 -36 -26 -55 13 -54 -47 -118 -209 -224 -122 -79 -212 -121
-378 -177 -70 -24 -144 -52 -166 -63 -78 -40 -165 -62 -365 -92 -372 -56 -803
-72 -927 -34 -64 20 -161 101 -385 322 -562 555 -718 831 -791 1407 -18 143
-14 212 16 263 23 40 17 53 -53 108 -38 29 -47 43 -57 87 -15 67 -19 88 -20
110 -1 9 -6 17 -12 17 -6 0 -8 -8 -5 -17 11 -42 17 -103 9 -103 -15 0 -53 112
-68 198 -33 191 -51 522 -36 667 18 175 41 338 58 410 18 77 129 413 142 430
5 5 16 35 26 65 16 51 58 143 173 380 25 52 70 135 100 185 30 49 62 103 71
118 103 180 240 352 434 549 138 140 319 287 472 382 33 21 100 62 149 93 49
30 143 80 210 109 67 30 132 63 146 74 l25 19 -45 -6 c-25 -3 -53 -10 -62 -14
-40 -21 -65 -10 -98 40 -43 68 -56 158 -35 248 9 36 13 68 10 71 -3 3 -1 10 4
16 15 18 62 168 56 175 -4 3 -34 11 -68 17 -34 7 -82 18 -107 26 -25 8 -51 13
-58 11z m-145 -165 c-2 -21 -8 -32 -20 -34 -20 -3 -23 16 -5 34 7 7 8 12 3 12
-8 0 14 19 22 20 2 0 2 -14 0 -32z m-43 -130 c-4 -6 -10 -5 -15 3 -14 22 -10
33 6 19 8 -7 12 -17 9 -22z m151 12 c8 -13 -92 -59 -142 -66 -36 -5 -37 -5
-19 10 11 9 25 16 30 16 6 0 34 11 61 25 57 28 61 29 70 15z m3594 -2111 c45
-33 83 -70 86 -82 3 -12 4 -58 3 -102 l-3 -79 -65 -24 c-36 -13 -69 -24 -75
-25 -5 -1 -13 32 -17 73 -3 41 -11 122 -16 180 -9 95 -8 120 3 120 2 0 40 -27
84 -61z m281 -104 c0 -8 -4 -15 -10 -15 -5 0 -10 7 -10 15 0 8 5 15 10 15 6 0
10 -7 10 -15z m-80 -76 c0 -16 -4 -29 -10 -29 -5 0 -10 16 -10 36 0 21 4 33
10 29 6 -3 10 -19 10 -36z m80 9 c0 -7 3 -31 6 -53 5 -27 3 -37 -4 -30 -12 12
-21 95 -10 95 5 0 8 -6 8 -12z m7 -120 c-3 -8 -6 -5 -6 6 -1 11 2 17 5 13 3
-3 4 -12 1 -19z m226 -106 c15 -16 15 -18 -3 -18 -10 0 -21 8 -23 18 -3 10 -2
18 2 18 5 0 15 -8 24 -18z m-392 -258 c45 -40 85 -243 75 -383 -9 -139 -15
-156 -55 -154 -78 3 -107 102 -113 383 -3 165 2 184 45 176 17 -3 38 -13 48
-22z m171 -132 c37 -39 51 -64 73 -133 15 -46 29 -116 32 -155 l6 -70 -61 -20
c-36 -12 -67 -17 -76 -12 -13 7 -19 48 -30 233 -2 22 -7 77 -11 123 -9 100 -1
104 67 34z m328 -241 c0 -6 -4 -13 -10 -16 -5 -3 -10 1 -10 9 0 9 5 16 10 16
6 0 10 -4 10 -9z m-150 -65 c0 -3 -4 -8 -10 -11 -5 -3 -10 -1 -10 4 0 6 5 11
10 11 6 0 10 -2 10 -4z m207 -130 c4 -7 63 -72 130 -142 170 -181 178 -191
177 -233 -2 -49 -34 -110 -82 -153 -43 -39 -128 -76 -142 -62 -17 17 -120 520
-120 587 0 20 26 23 37 3z m-192 -148 c-3 -57 -7 -184 -10 -283 -3 -99 -10
-197 -15 -217 -9 -32 -15 -37 -43 -40 -51 -5 -100 11 -142 46 -36 31 -39 37
-38 78 5 99 113 388 145 388 5 0 8 7 8 15 0 8 5 14 11 13 6 -2 13 7 15 20 4
23 51 81 66 82 4 0 6 -46 3 -102z m448 35 c-7 -2 -19 -2 -25 0 -7 3 -2 5 12 5
14 0 19 -2 13 -5z m-762 -196 c-10 -9 -11 -8 -5 6 3 10 9 15 12 12 3 -3 0 -11
-7 -18z m890 -114 c-8 -15 -10 -15 -11 -2 0 17 10 32 18 25 2 -3 -1 -13 -7
-23z m-6261 -115 c0 -43 34 -247 56 -338 30 -120 85 -324 110 -403 28 -91 28
-87 12 -87 -18 0 -117 117 -123 143 -2 12 -13 62 -25 110 -11 49 -18 97 -15
108 4 11 2 19 -4 19 -6 0 -11 17 -11 38 0 20 -9 97 -20 170 -23 154 -25 222
-8 269 14 39 28 26 28 -29z m87 -93 c17 -66 35 -133 41 -150 6 -16 25 -100 42
-185 75 -381 89 -446 95 -462 5 -12 2 -18 -7 -18 -15 0 -38 44 -59 115 -6 22
-15 48 -20 57 -5 9 -20 70 -34 135 -14 65 -30 134 -35 153 -33 132 -70 369
-69 449 0 79 5 69 46 -94z m5321 -1697 c-3 -7 -11 -13 -18 -13 -7 0 -15 6 -17
13 -3 7 4 12 17 12 13 0 20 -5 18 -12z m-4375 -1218 c56 -22 143 -63 192 -91
50 -29 114 -65 143 -81 44 -25 52 -34 52 -58 0 -20 -7 -33 -22 -42 -62 -34
-208 -89 -275 -103 -95 -20 -275 -34 -317 -25 l-31 6 1 85 c1 63 9 104 29 164
30 87 90 185 112 185 8 0 60 -18 116 -40z m1317 -22 c26 -43 54 -171 45 -205
-6 -27 -72 -97 -150 -160 -44 -36 -119 -63 -174 -63 -58 0 -207 65 -259 113
-13 12 -26 21 -28 19 -7 -5 -64 22 -64 31 0 4 9 3 19 -3 28 -14 35 -12 17 5
-22 22 -11 39 37 59 23 9 49 21 57 26 8 5 83 43 165 86 267 137 302 146 335
92z m-867 -477 c-2 -40 -12 -71 -41 -125 -49 -90 -98 -126 -186 -136 l-61 -6
58 -18 c31 -9 57 -22 57 -27 0 -5 -11 -27 -25 -49 -14 -22 -25 -42 -25 -46 0
-7 -27 -34 -35 -34 -3 0 -21 -11 -39 -25 -18 -14 -45 -25 -59 -25 -43 0 -157
29 -242 62 -138 52 -159 69 -112 88 279 114 309 129 383 193 31 26 91 68 133
93 42 24 96 59 121 78 62 48 76 44 73 -23z"/>
<path d="M5595 9000 c-4 -6 12 -10 42 -9 39 1 43 3 23 9 -36 11 -58 11 -65 0z"/>
<path d="M3439 8713 c-21 -59 -21 -57 -5 -44 16 13 37 -3 62 -45 7 -10 2 11
-10 48 -11 37 -24 68 -29 68 -4 0 -12 -12 -18 -27z"/>
<path d="M3345 8553 c-51 -59 -96 -86 -170 -103 -68 -15 -87 -26 -65 -40 12
-7 12 -16 -3 -62 -9 -30 -30 -66 -45 -81 l-29 -27 5 29 c4 31 3 31 -90 32 -10
0 -18 4 -18 9 0 4 -9 6 -19 3 -13 -3 -23 2 -31 17 -6 12 -14 19 -17 16 -3 -3
-9 -70 -13 -148 -7 -159 -18 -192 -74 -230 -59 -41 -111 -91 -98 -96 6 -2 12
-8 12 -12 0 -13 42 -82 47 -77 2 3 -3 23 -11 46 -20 58 -11 78 43 103 25 11
60 33 77 48 18 15 53 38 78 51 56 27 99 70 158 152 24 33 60 79 81 102 20 23
37 51 37 61 -1 18 -1 18 -11 2 -24 -42 -40 -3 -18 45 6 13 34 36 62 51 59 31
115 78 141 119 27 44 15 39 -29 -10z m-345 -381 c0 -4 -16 -23 -37 -42 -40
-38 -42 -30 -3 19 24 30 40 39 40 23z"/>
<path d="M7283 8468 c14 -176 18 -212 32 -245 l15 -35 102 2 c57 1 108 1 114
1 6 -1 28 -37 48 -81 21 -44 43 -83 48 -86 9 -6 -5 30 -37 98 -23 46 -15 68
25 68 16 0 30 -4 30 -9 0 -5 18 -28 40 -50 22 -22 40 -45 40 -52 0 -13 97
-146 110 -151 5 -2 38 -31 73 -65 65 -63 144 -113 179 -113 18 0 19 6 13 78
-3 42 -2 97 3 122 9 49 -1 105 -24 131 -8 9 -40 28 -72 44 -106 51 -148 89
-186 168 -19 40 -35 63 -35 53 -1 -32 -48 -84 -88 -97 -53 -17 -335 -18 -355
-1 -19 15 -27 54 -29 137 -1 62 -27 155 -43 155 -5 0 -6 -32 -3 -72z m585
-285 l50 -48 -3 -59 c-3 -47 0 -65 15 -87 44 -61 9 -67 -45 -8 -70 78 -121
227 -82 242 6 3 13 6 14 6 1 1 24 -20 51 -46z m182 -288 c10 -12 10 -19 2 -27
-15 -15 -48 14 -38 31 10 15 21 14 36 -4z"/>
<path d="M6850 8476 c0 -9 5 -16 10 -16 6 0 10 4 10 9 0 6 -4 13 -10 16 -5 3
-10 -1 -10 -9z"/>
<path d="M4705 8380 c-75 -57 -217 -190 -203 -190 17 0 86 46 130 87 29 28 80
75 113 106 33 30 58 58 55 60 -3 3 -46 -25 -95 -63z"/>
<path d="M2955 8421 l-30 -7 34 -8 c25 -6 37 -4 49 8 15 15 15 16 -3 15 -11
-1 -33 -4 -50 -8z"/>
<path d="M5356 8284 c-5 -14 -4 -15 9 -4 17 14 19 20 6 20 -5 0 -12 -7 -15
-16z"/>
<path d="M5280 8215 c-19 -19 -30 -35 -25 -35 4 0 23 16 42 35 19 19 30 35 25
35 -4 0 -23 -16 -42 -35z"/>
<path d="M5084 8012 c-57 -53 -127 -137 -240 -292 -95 -130 -116 -163 -233
-365 -59 -103 -180 -342 -239 -472 -22 -48 -51 -113 -65 -143 -77 -168 -158
-413 -192 -579 -24 -120 -30 -170 -20 -159 3 3 12 31 21 63 8 33 19 64 23 69
5 6 11 20 14 31 4 17 5 16 7 -5 2 -24 3 -24 10 5 l8 30 1 -34 c1 -45 15 -30
31 34 11 48 70 239 147 485 36 115 198 485 295 675 77 153 259 439 308 485 13
12 157 186 164 198 11 19 4 14 -40 -26z"/>
<path d="M7671 7944 c0 -11 3 -14 6 -6 3 7 2 16 -1 19 -3 4 -6 -2 -5 -13z"/>
<path d="M7680 7904 c0 -8 5 -12 10 -9 6 3 10 10 10 16 0 5 -4 9 -10 9 -5 0
-10 -7 -10 -16z"/>
<path d="M7702 7860 c0 -14 2 -19 5 -12 2 6 2 18 0 25 -3 6 -5 1 -5 -13z"/>
<path d="M2740 7698 c0 -42 -3 -91 -7 -109 -6 -32 -5 -33 11 -20 15 13 17 27
12 104 -6 111 -16 126 -16 25z"/>
<path d="M8001 7664 c0 -11 3 -14 6 -6 3 7 2 16 -1 19 -3 4 -6 -2 -5 -13z"/>
<path d="M6891 7570 c-44 -240 -111 -495 -175 -665 -25 -66 -65 -176 -88 -245
-52 -155 -250 -551 -352 -705 -40 -60 -80 -122 -89 -137 -33 -53 -57 -98 -52
-98 4 0 45 60 212 309 80 120 196 340 317 604 32 70 64 127 70 127 6 0 22 -30
36 -67 24 -67 24 -73 26 -438 2 -372 11 -499 48 -700 17 -87 21 -185 8 -185
-4 0 -13 5 -20 12 -22 22 -13 -3 14 -37 18 -24 28 -54 35 -107 6 -40 24 -147
41 -238 33 -184 32 -171 22 -225 l-7 -40 25 23 c32 29 34 28 54 -10 22 -43 21
-43 39 -28 9 7 17 11 20 9 5 -6 -18 -75 -28 -85 -4 -4 -7 -21 -7 -38 1 -25 6
-18 30 41 16 40 27 79 24 87 -9 22 6 42 18 25 7 -10 8 -8 3 7 -4 18 34 105 54
124 21 18 123 310 136 387 4 21 9 47 11 58 13 53 -20 -25 -66 -158 -50 -144
-172 -407 -189 -407 -29 0 -104 371 -137 680 -35 334 -46 460 -41 474 5 12 76
56 463 284 66 40 129 72 138 72 15 0 17 -10 14 -90 -2 -50 -1 -90 2 -90 5 0
22 54 36 113 3 15 10 29 14 32 4 3 65 -31 135 -75 69 -44 133 -80 141 -80 10
0 14 13 14 44 0 41 -3 47 -47 78 -27 19 -81 54 -121 79 -45 27 -71 50 -70 59
3 14 100 85 167 122 26 14 31 23 31 55 0 46 -13 69 -31 58 -8 -5 -54 -35 -102
-67 -48 -32 -92 -56 -97 -53 -6 4 -10 19 -10 35 0 34 -9 60 -20 60 -5 0 -12
-30 -15 -66 -5 -40 -13 -68 -21 -71 -15 -6 -35 5 -239 129 -78 47 -179 104
-225 127 -47 24 -91 48 -98 54 -7 6 -30 13 -50 16 l-37 6 1 110 c0 61 13 234
28 385 15 152 26 303 24 335 l-3 60 -14 -75z m36 -958 c162 -79 454 -253 450
-267 -3 -9 -234 -141 -377 -215 -36 -19 -75 -43 -88 -54 -22 -20 -24 -20 -36
-4 -25 34 -51 539 -29 561 10 11 19 9 80 -21z"/>
<path d="M7931 7590 c-19 -28 -37 -50 -40 -50 -3 0 -15 13 -26 29 -11 17 -21
28 -23 26 -6 -6 42 -145 51 -145 4 0 7 6 7 13 1 6 9 30 20 52 11 22 19 46 20
53 0 6 4 12 9 12 5 0 11 8 15 18 3 9 9 23 12 30 15 31 -14 7 -45 -38z"/>
<path d="M3930 7547 c-64 -96 -161 -287 -224 -442 -24 -60 -61 -148 -82 -194
-20 -46 -42 -104 -50 -130 -7 -25 -33 -104 -57 -176 -98 -287 -153 -591 -161
-895 -5 -187 7 -178 18 13 6 110 18 130 16 27 -2 -117 -1 -135 9 -124 5 5 14
91 20 191 11 174 37 359 82 577 11 56 23 112 25 126 12 70 17 91 41 165 14 44
29 89 33 100 4 11 18 47 30 80 12 33 35 80 51 105 50 81 130 254 124 268 -3 8
1 22 8 31 7 9 28 52 46 96 38 93 48 115 59 135 23 40 33 62 30 66 -2 1 -10 -7
-18 -19z m-533 -1609 c-3 -8 -6 -5 -6 6 -1 11 2 17 5 13 3 -3 4 -12 1 -19z m3
-75 c0 -19 -3 -24 -10 -17 -6 6 -8 18 -4 27 9 24 14 21 14 -10z"/>
<path d="M2836 7513 c-6 -30 -43 -79 -52 -70 -3 3 0 15 6 27 8 15 8 20 1 16
-6 -4 -21 -26 -33 -49 -11 -23 -31 -62 -44 -87 -25 -49 -30 -70 -14 -70 6 0
10 9 10 19 0 11 5 23 11 26 6 4 14 17 19 29 l9 21 0 -22 c1 -12 -5 -23 -11
-26 -10 -3 -10 -9 -1 -25 10 -16 10 -22 0 -25 -9 -4 -8 -6 1 -6 8 -1 19 13 25
29 6 17 15 30 18 30 7 0 14 12 70 122 30 59 36 84 19 73 -5 -3 -10 -1 -10 4 0
23 -18 10 -24 -16z m-56 -133 c0 -5 -5 -10 -11 -10 -5 0 -7 5 -4 10 3 6 8 10
11 10 2 0 4 -4 4 -10z"/>
<path d="M5550 7319 c-7 -11 -10 -23 -7 -25 2 -2 9 7 15 21 14 30 7 33 -8 4z"/>
<path d="M2670 7255 c-6 -8 -10 -19 -8 -26 2 -6 9 0 16 15 13 29 10 33 -8 11z"/>
<path d="M5500 7230 c-6 -12 -9 -24 -7 -27 3 -2 11 5 17 17 6 12 9 24 7 27 -3
2 -11 -5 -17 -17z"/>
<path d="M5460 7151 c-11 -23 -17 -41 -12 -41 10 0 45 70 38 77 -2 3 -14 -13
-26 -36z"/>
<path d="M5066 7105 c-9 -26 -7 -32 5 -12 6 10 9 21 6 23 -2 3 -7 -2 -11 -11z"/>
<path d="M5037 7043 c-4 -3 -7 -11 -7 -17 0 -6 5 -5 12 2 6 6 9 14 7 17 -3 3
-9 2 -12 -2z"/>
<path d="M5014 6994 c-4 -10 -18 -43 -31 -73 -13 -30 -22 -56 -20 -58 2 -2 18
29 36 68 18 39 30 74 27 77 -3 2 -9 -4 -12 -14z"/>
<path d="M4945 6830 c-4 -12 -5 -24 -2 -27 3 -2 8 5 12 17 4 12 5 24 2 27 -3
2 -8 -5 -12 -17z"/>
<path d="M2187 6702 c-10 -26 -23 -55 -29 -66 -5 -11 -6 -22 -1 -27 5 -5 19
21 32 62 26 81 25 101 -2 31z"/>
<path d="M4773 6364 c-33 -102 -93 -328 -93 -351 0 -21 17 -15 24 10 40 141
106 413 104 424 -2 9 -17 -29 -35 -83z"/>
<path d="M6325 6130 c-9 -16 -13 -30 -11 -30 3 0 12 14 21 30 9 17 13 30 11
30 -3 0 -12 -13 -21 -30z"/>
<path d="M6046 5981 c-14 -22 -26 -45 -26 -50 0 -5 -3 -11 -7 -13 -5 -1 -50
-66 -102 -143 -52 -77 -158 -222 -235 -323 -78 -101 -177 -232 -221 -291 -44
-59 -117 -152 -162 -207 -87 -103 -113 -157 -44 -90 21 21 40 33 42 27 2 -6
21 10 41 36 41 54 268 358 329 443 22 30 78 107 124 170 46 63 114 167 150
230 96 167 105 182 127 213 11 16 17 31 15 34 -3 3 -17 -13 -31 -36z"/>
<path d="M4672 5965 c0 -16 2 -22 5 -12 2 9 2 23 0 30 -3 6 -5 -1 -5 -18z"/>
<path d="M9090 5799 c0 -5 5 -7 10 -4 6 3 10 8 10 11 0 2 -4 4 -10 4 -5 0 -10
-5 -10 -11z"/>
<path d="M3011 5354 c0 -11 3 -14 6 -6 3 7 2 16 -1 19 -3 4 -6 -2 -5 -13z"/>
<path d="M6045 5164 c-11 -3 -59 -14 -108 -26 -84 -19 -121 -38 -78 -38 30 0
26 -17 -7 -34 -43 -22 -55 -41 -37 -56 12 -10 22 -8 55 9 47 24 58 25 83 6 18
-13 17 -16 -17 -60 -42 -56 -128 -231 -124 -252 2 -11 16 -6 57 22 51 35 55
36 67 20 8 -10 20 -15 29 -11 9 3 13 2 10 -4 -3 -5 -3 -20 0 -33 5 -19 11 -23
31 -19 13 2 24 2 24 -1 0 -2 -12 -35 -26 -73 -22 -60 -23 -69 -10 -76 9 -5 16
-15 16 -23 0 -8 18 -24 39 -35 22 -11 42 -24 46 -30 14 -22 37 -8 68 43 19 28
42 73 53 99 23 58 34 61 34 11 l1 -38 19 23 c11 13 25 42 30 63 6 22 15 37 21
34 5 -4 6 -17 3 -31 -4 -16 -2 -24 7 -24 12 0 12 -2 0 -9 -19 -12 -5 -31 19
-26 17 3 20 -1 18 -23 -4 -61 29 -69 59 -14 47 85 77 193 76 277 0 44 -6 93
-12 109 -40 102 84 -35 144 -157 24 -51 49 -119 56 -152 12 -58 11 -62 -19
-120 -33 -67 -69 -114 -146 -195 -58 -61 -78 -88 -55 -75 38 22 139 109 179
152 118 129 157 204 146 275 -7 41 -43 126 -76 173 -23 34 -25 45 -9 45 19 0
99 43 99 53 0 5 -8 6 -17 1 -10 -4 -40 -9 -66 -12 -47 -4 -49 -3 -115 59 -37
35 -68 67 -70 70 -2 4 20 15 48 25 28 10 58 27 68 38 16 18 16 19 -13 10 -51
-15 -195 -10 -255 10 -54 17 -297 32 -345 20z m385 -244 c55 -55 28 -179 -44
-204 -34 -13 -77 17 -90 62 -13 45 17 118 58 143 39 24 51 24 76 -1z m-172
-158 c2 -7 -2 -10 -12 -6 -9 3 -16 11 -16 16 0 13 23 5 28 -10z m-104 -18 c35
-13 5 -82 -30 -70 -10 3 -24 17 -30 30 -9 18 -8 25 5 34 19 13 33 14 55 6z"/>
<path d="M2694 4951 c7 -77 25 -165 33 -157 6 5 -27 219 -34 226 -3 3 -3 -28
1 -69z"/>
<path d="M2461 4910 c0 -20 5 -60 13 -90 8 -30 17 -77 21 -104 4 -27 15 -56
25 -66 9 -9 30 -41 47 -71 69 -123 78 -139 85 -139 8 0 -12 50 -53 134 -16 32
-29 62 -29 67 0 5 -9 28 -19 52 -11 23 -22 52 -26 65 -3 12 -11 22 -16 22 -5
0 -9 14 -9 30 0 17 -4 30 -10 30 -5 0 -7 7 -4 15 4 8 2 21 -4 28 -6 6 -12 23
-15 37 -3 19 -5 17 -6 -10z"/>
<path d="M2330 4832 c0 -4 18 -26 41 -47 22 -22 54 -59 71 -83 16 -24 32 -41
34 -39 12 12 -58 134 -89 155 -34 22 -57 28 -57 14z"/>
<path d="M5795 4673 c-13 -32 -19 -270 -7 -277 14 -8 18 11 31 141 9 81 8 106
-3 128 -12 23 -14 24 -21 8z"/>
<path d="M6822 4551 c-72 -110 -193 -313 -189 -317 6 -6 123 159 164 231 95
165 110 216 25 86z"/>
<path d="M5927 4603 c-4 -3 -7 -11 -7 -17 0 -6 5 -5 12 2 6 6 9 14 7 17 -3 3
-9 2 -12 -2z"/>
<path d="M7020 4550 c-6 -11 -7 -20 -2 -20 6 0 12 9 15 20 3 11 3 20 1 20 -2
0 -8 -9 -14 -20z"/>
<path d="M7812 4478 c2 -7 -2 -12 -9 -11 -6 2 -47 -36 -90 -84 -43 -48 -119
-130 -169 -182 -120 -125 -197 -210 -207 -227 -9 -16 19 -9 43 11 22 19 238
131 290 151 25 10 59 29 76 43 18 14 51 37 74 51 52 31 69 59 46 72 -11 6 -15
16 -11 28 3 10 1 21 -5 25 -15 9 -12 25 5 25 11 0 15 11 15 36 0 27 -4 35 -14
31 -10 -4 -16 2 -18 15 -2 12 -9 23 -16 26 -7 2 -11 -2 -10 -10z"/>
<path d="M6940 4429 c-14 -19 -30 -40 -37 -47 -7 -7 -13 -19 -13 -26 0 -8 -7
-19 -15 -26 -19 -16 -20 -31 -1 -24 8 3 16 15 19 26 4 13 10 17 18 12 9 -5 10
-2 6 9 -3 9 -3 17 1 19 15 6 53 69 50 80 -2 6 -15 -4 -28 -23z"/>
<path d="M6278 4403 c-20 -27 -50 -61 -67 -77 -17 -17 -31 -38 -31 -48 0 -23
11 -23 31 0 8 9 41 46 72 82 31 36 57 71 57 77 0 27 -27 11 -62 -34z"/>
<path d="M2892 4359 c2 -6 8 -10 13 -10 5 0 11 4 13 10 2 6 -4 11 -13 11 -9 0
-15 -5 -13 -11z"/>
<path d="M5925 4101 c-7 -12 12 -24 25 -16 11 7 4 25 -10 25 -5 0 -11 -4 -15
-9z"/>
<path d="M8641 4074 c0 -11 3 -14 6 -6 3 7 2 16 -1 19 -3 4 -6 -2 -5 -13z"/>
<path d="M7265 4017 c-35 -41 -123 -157 -139 -182 l-19 -30 29 26 c16 15 38
31 49 37 12 6 27 23 35 39 8 15 27 47 43 69 15 23 27 45 27 48 0 10 -14 6 -25
-7z"/>
<path d="M8792 3915 c0 -55 14 -166 17 -135 4 40 0 102 -9 140 l-8 35 0 -40z"/>
<path d="M6417 3768 c-86 -83 -157 -155 -157 -160 0 -22 63 29 160 129 134
137 165 172 159 177 -3 3 -75 -63 -162 -146z"/>
<path d="M6231 3586 c-8 -9 -11 -19 -7 -23 9 -9 29 13 24 27 -2 8 -8 7 -17 -4z"/>
<path d="M2172 3520 c13 -20 28 -27 28 -12 0 10 -22 32 -32 32 -5 0 -3 -9 4
-20z"/>
<path d="M4575 3420 c-3 -5 -1 -10 4 -10 6 0 11 5 11 10 0 6 -2 10 -4 10 -3 0
-8 -4 -11 -10z"/>
<path d="M3416 3319 c-10 -131 14 -219 60 -219 24 0 26 3 21 33 -2 17 -14 66
-27 107 -12 41 -27 95 -34 119 l-13 45 -7 -85z"/>
<path d="M2211 3364 c0 -11 3 -14 6 -6 3 7 2 16 -1 19 -3 4 -6 -2 -5 -13z"/>
<path d="M2697 3223 c-4 -48 -4 -89 -2 -91 2 -3 10 8 16 24 15 37 17 130 3
144 -8 8 -13 -15 -17 -77z"/>
<path d="M6067 3153 c-4 -3 -7 -11 -7 -17 0 -6 5 -5 12 2 6 6 9 14 7 17 -3 3
-9 2 -12 -2z"/>
<path d="M2015 3090 c-41 -5 -46 -8 -30 -15 11 -5 42 -9 70 -10 39 0 50 4 53
18 4 19 -3 19 -93 7z"/>
<path d="M1618 3008 c16 -24 55 -95 86 -158 73 -145 134 -250 146 -250 20 0
18 20 -9 86 -15 38 -38 102 -52 143 -16 52 -31 78 -49 90 -14 9 -34 27 -45 41
-29 38 -85 90 -96 90 -6 0 3 -19 19 -42z"/>
<path d="M3537 2967 c-24 -37 -22 -52 20 -124 36 -60 39 -63 68 -57 16 3 32 8
34 10 7 6 -59 138 -84 170 l-21 26 -17 -25z"/>
<path d="M2640 2851 c0 -51 -71 -98 -199 -131 -63 -17 -44 -22 34 -10 155 25
205 59 191 133 -8 44 -26 49 -26 8z"/>
<path d="M6686 2824 c-30 -54 -27 -68 8 -35 27 26 37 53 26 71 -5 8 -17 -5
-34 -36z"/>
<path d="M4110 2810 c0 -5 5 -10 10 -10 6 0 10 5 10 10 0 6 -4 10 -10 10 -5 0
-10 -4 -10 -10z"/>
<path d="M6610 2725 c-14 -17 -12 -19 48 -89 34 -38 34 -39 29 -115 -6 -74 -6
-75 8 -36 27 79 20 115 -39 190 -17 21 -30 45 -28 52 4 17 -3 16 -18 -2z"/>
<path d="M5556 2675 c-16 -13 -60 -41 -97 -62 -68 -38 -87 -67 -54 -80 30 -11
216 132 201 155 -10 17 -17 15 -50 -13z"/>
<path d="M6661 2494 c0 -11 3 -14 6 -6 3 7 2 16 -1 19 -3 4 -6 -2 -5 -13z"/>
<path d="M6652 2392 c-24 -48 -26 -56 -14 -48 17 10 43 64 34 70 -4 2 -13 -8
-20 -22z"/>
<path d="M2646 2358 c4 -37 -1 -76 -15 -128 -20 -75 -17 -100 14 -100 23 0 60
-55 79 -118 24 -79 14 -118 -51 -193 -27 -30 -66 -82 -87 -114 -22 -33 -52
-79 -68 -102 -15 -23 -58 -103 -94 -177 -36 -75 -70 -138 -75 -141 -5 -4 -9
-17 -9 -30 0 -29 -10 -55 -20 -55 -12 0 -152 197 -183 256 -43 84 -86 199
-108 291 -18 76 -20 105 -14 208 6 108 10 128 41 195 19 41 47 88 62 104 20
22 22 27 9 23 -10 -4 -37 -7 -60 -8 -34 0 -38 -2 -21 -9 35 -14 36 -27 9 -69
-14 -23 -25 -43 -25 -46 0 -3 -7 -22 -15 -41 l-15 -36 -49 42 c-55 47 -78 48
-101 7 -15 -27 -14 -28 40 -81 30 -29 64 -57 74 -63 15 -8 19 -23 21 -74 1
-35 7 -106 14 -157 7 -51 11 -100 9 -108 -2 -8 -38 30 -85 88 -79 99 -83 105
-83 154 0 36 -5 56 -18 67 -25 23 -29 22 -117 -19 -72 -35 -78 -36 -118 -25
-52 16 -125 61 -160 101 -19 20 -36 30 -56 30 -44 0 -46 -16 -9 -60 70 -81
109 -254 111 -490 1 -145 -2 -172 -20 -222 -12 -32 -25 -78 -29 -103 -4 -27
-13 -49 -23 -55 -20 -10 -121 15 -121 31 0 5 4 9 9 9 24 0 43 89 47 220 2 74
1 128 -3 120 -3 -8 -14 -20 -23 -27 -10 -7 -27 -32 -38 -57 -23 -48 -95 -106
-131 -106 -32 0 -26 14 24 54 31 26 56 61 85 117 22 45 40 89 40 98 0 9 11 39
25 66 13 28 25 55 25 62 0 6 4 13 9 15 5 2 4 33 -1 72 -9 70 -45 136 -73 136
-7 0 -15 7 -19 15 -6 15 -46 21 -46 7 0 -5 -6 -17 -14 -27 -12 -17 -16 -11
-50 58 -22 46 -43 77 -52 77 -8 0 -12 4 -9 10 3 5 -5 21 -19 34 -14 13 -26 27
-26 32 0 5 -9 20 -19 33 l-19 25 5 -30 c4 -26 3 -27 -8 -9 -14 23 -30 35 -44
34 -5 0 -4 -3 3 -6 6 -2 12 -9 12 -14 0 -8 29 -75 73 -170 14 -29 32 -51 49
-58 28 -13 37 -35 18 -46 -14 -9 -12 -26 2 -22 7 1 13 -4 14 -10 1 -7 2 -17 3
-23 0 -5 6 -10 12 -10 7 0 8 11 4 30 -4 17 -3 30 2 30 15 0 55 -80 49 -96 -3
-9 -1 -12 4 -9 13 8 32 -43 25 -66 -7 -22 -25 -25 -25 -4 0 9 -6 12 -17 9 -10
-3 -25 -8 -33 -10 -12 -4 -13 -6 0 -14 12 -7 11 -10 -5 -16 -36 -14 -73 -63
-85 -114 -20 -81 -56 -179 -75 -200 -10 -11 -43 -26 -74 -35 -110 -30 -167
-64 -234 -139 -90 -101 -156 -189 -220 -292 -31 -49 -90 -128 -131 -174 -96
-107 -122 -144 -145 -208 -11 -28 -29 -64 -40 -81 -12 -17 -44 -79 -71 -138
-39 -85 -50 -119 -50 -160 0 -29 -4 -53 -10 -53 -5 0 -10 -4 -10 -10 0 -5 6
-7 13 -4 7 2 19 -6 26 -20 8 -14 26 -26 43 -30 17 -3 402 -6 856 -6 l825 0
-56 40 c-55 40 -218 111 -287 125 -67 14 -495 210 -545 249 -39 31 160 -52
335 -139 92 -46 187 -80 350 -125 63 -17 175 -74 225 -115 l42 -35 267 0 c146
0 266 3 266 6 0 3 -11 20 -25 38 -13 18 -34 54 -46 82 -12 27 -38 63 -59 81
-21 18 -54 67 -79 115 -67 130 -80 148 -142 188 -90 58 -131 66 -225 42 l-79
-20 -12 -42 c-16 -55 -46 -87 -95 -102 -34 -10 -41 -8 -94 23 -80 48 -171 156
-215 257 -7 17 -18 32 -22 32 -4 0 -13 14 -18 30 -10 28 -15 30 -57 29 -26 0
-69 -4 -96 -8 -56 -9 -131 8 -152 36 -19 26 -41 108 -49 186 -4 37 -10 67 -15
67 -5 0 -30 -25 -55 -55 -26 -30 -51 -55 -56 -55 -44 0 92 137 173 174 47 21
72 26 140 26 76 0 91 -3 154 -35 40 -20 84 -35 104 -35 27 0 42 -7 63 -31 19
-22 24 -35 17 -43 -8 -11 -2 -27 26 -64 1 -2 13 3 26 11 17 11 58 15 152 15
117 1 134 -1 183 -23 73 -34 188 -65 243 -66 57 -1 95 -12 95 -26 0 -21 19
-31 80 -46 33 -8 67 -17 76 -21 13 -6 15 9 15 119 -1 121 0 127 23 146 27 22
46 16 31 -11 -11 -20 -14 -138 -4 -163 4 -12 10 -12 30 -3 22 10 24 17 24 80
0 101 48 290 113 446 22 52 54 132 71 176 39 101 65 138 128 187 41 32 59 39
113 44 36 3 65 9 65 12 0 4 -22 29 -48 57 -27 28 -60 73 -73 100 -21 44 -24
62 -24 171 0 111 -2 124 -23 150 -12 15 -39 52 -59 81 -20 28 -37 52 -40 52
-2 0 -1 -24 3 -52z m-1008 -562 c21 -23 68 -144 59 -152 -2 -3 -21 29 -41 70
-27 59 -44 81 -76 101 -22 14 -40 30 -40 36 0 13 74 -28 98 -55z m-405 -152
c-4 -12 -8 -13 -14 -3 -9 15 -2 32 11 24 5 -3 6 -13 3 -21z m-14 -61 c0 -10
-4 -27 -8 -38 -7 -16 -9 -13 -13 18 -3 26 0 37 9 37 7 0 13 -8 12 -17z m646
-70 l28 -38 -31 29 c-18 17 -32 33 -32 38 0 15 7 9 35 -29z"/>
<path d="M7243 2271 c-39 -25 -86 -54 -103 -63 -46 -26 -60 -72 -63 -198 l-2
-109 -52 -103 c-67 -136 -71 -148 -41 -150 52 -3 71 5 119 52 28 28 54 50 58
50 9 -1 51 -37 51 -45 0 -3 18 -30 40 -59 27 -36 44 -72 52 -110 15 -71 14
-73 -142 -156 -130 -70 -150 -86 -103 -77 23 5 33 2 37 -9 4 -10 12 -14 23
-10 9 4 20 1 24 -5 4 -8 27 -12 56 -11 26 1 53 -1 59 -5 24 -16 74 -108 94
-172 12 -36 25 -74 30 -83 42 -77 134 -334 160 -448 17 -74 37 -162 46 -195 8
-33 20 -106 26 -162 l12 -102 65 -20 c37 -11 127 -34 202 -51 l137 -30 486 0
c267 0 486 3 486 8 0 4 5 49 9 99 10 99 29 142 107 243 19 25 45 58 57 74 19
24 31 30 79 34 34 2 87 -2 133 -13 42 -9 79 -15 81 -12 3 3 18 53 34 112 16
59 36 118 45 132 20 30 14 39 -14 24 -24 -13 -46 -3 -93 42 -36 34 -67 34
-118 2 -22 -14 -42 -25 -45 -25 -3 0 -36 -20 -74 -45 -114 -75 -101 -57 60 85
35 30 67 61 73 69 6 8 27 29 45 49 33 32 34 35 17 47 -12 9 -16 20 -11 35 6
19 4 20 -37 14 -24 -4 -62 -15 -85 -25 -23 -10 -44 -15 -47 -11 -2 4 0 30 5
57 12 78 13 77 -21 70 -23 -5 -30 -3 -30 8 0 8 -6 20 -13 26 -8 6 -19 30 -26
53 -7 24 -20 55 -28 71 -8 15 -15 56 -16 92 -2 66 -12 80 -37 50 -7 -8 -18
-15 -24 -15 -7 0 -48 36 -92 79 -51 52 -81 75 -86 68 -3 -7 0 -42 7 -77 37
-178 37 -323 0 -528 -27 -144 -25 -143 -126 -86 -91 51 -122 76 -263 209 -126
119 -126 119 -151 197 -14 44 -25 89 -25 100 0 21 0 21 -26 -3 -28 -26 -57
-78 -67 -119 -9 -35 -62 -97 -110 -127 -39 -25 -40 -25 -66 -6 -32 24 -70 98
-71 139 0 16 -7 39 -15 50 -14 18 -16 18 -52 -22 -21 -22 -60 -71 -86 -108
-74 -102 -155 -185 -208 -212 -58 -29 -71 -30 -92 -6 -27 29 -38 109 -43 298
-2 99 -4 195 -5 214 0 19 2 49 6 66 6 26 2 34 -27 60 -99 87 -154 185 -178
316 -18 97 -11 114 46 122 123 16 300 -11 421 -65 36 -16 68 -27 71 -25 7 7
-162 83 -236 106 -47 15 -93 20 -173 20 -63 0 -109 4 -109 10 0 5 9 33 21 62
14 36 19 67 16 95 -2 24 -1 64 4 89 5 26 8 48 7 49 -2 1 -35 -19 -75 -44z
m1755 -1044 c13 -16 52 -158 52 -192 0 -33 -46 -135 -61 -135 -7 0 -9 9 -6 23
15 60 18 117 8 153 -5 21 -13 67 -17 102 -7 62 1 77 24 49z m-1004 -398 c-10
-12 -32 -30 -49 -41 -21 -13 -16 -7 14 21 46 44 67 55 35 20z m1111 -59 c-11
-5 -58 -25 -105 -45 -47 -20 -91 -39 -99 -42 -9 -4 -12 -1 -9 8 7 22 66 51
142 70 78 19 102 22 71 9z m-1195 -10 c0 -5 -4 -10 -9 -10 -5 0 -18 -3 -28 -6
-16 -5 -16 -4 1 10 23 18 36 20 36 6z m800 -90 c0 -17 -297 -90 -366 -90 -19
0 -60 -18 -110 -48 -43 -27 -104 -63 -134 -82 -30 -18 -68 -42 -83 -52 -16
-11 -31 -18 -33 -15 -2 2 19 20 48 41 251 174 297 197 438 218 41 6 109 16
150 23 41 7 78 14 83 14 4 1 7 -3 7 -9z"/>
<path d="M6541 2279 c-19 -11 -62 -31 -96 -45 -89 -36 -129 -72 -127 -115 0
-19 1 -61 3 -94 1 -46 -4 -73 -23 -115 -38 -85 -68 -113 -183 -170 -115 -57
-166 -104 -212 -195 -14 -27 -36 -67 -49 -87 -17 -27 -20 -38 -11 -38 18 0 35
21 82 98 24 39 44 62 56 62 19 0 34 16 22 23 -5 2 -2 2 6 0 7 -2 19 0 25 5 30
23 151 54 188 48 110 -18 214 -58 295 -113 46 -31 85 -54 88 -51 9 9 -51 226
-85 307 -65 158 -74 244 -36 351 18 52 31 71 64 95 68 50 63 75 -7 34z"/>
<path d="M850 2220 c0 -5 7 -10 16 -10 8 0 12 5 9 10 -3 6 -10 10 -16 10 -5 0
-9 -4 -9 -10z"/>
<path d="M7994 2115 c27 -21 53 -20 36 0 -7 8 -22 15 -34 15 -21 -1 -21 -1 -2
-15z"/>
<path d="M7901 2007 c-16 -41 -13 -57 4 -23 9 16 14 34 11 40 -2 6 -9 -2 -15
-17z"/>
<path d="M8020 1982 c0 -12 19 -26 26 -19 2 2 -2 10 -11 17 -9 8 -15 8 -15 2z"/>
<path d="M9015 1940 c-3 -5 -13 -10 -22 -10 -9 0 -54 -18 -100 -40 -47 -22
-89 -40 -94 -40 -12 0 -11 -22 1 -54 6 -16 17 -26 29 -26 29 0 121 45 151 73
14 13 30 22 36 20 7 -2 14 3 17 12 4 9 1 15 -8 15 -20 0 -19 29 0 36 16 7 21
24 6 24 -6 0 -13 -4 -16 -10z"/>
<path d="M1035 1919 c-8 -13 -6 -15 23 -23 26 -9 32 18 6 28 -21 8 -22 8 -29
-5z"/>
<path d="M7814 1865 c11 -8 25 -15 30 -15 6 0 2 7 -8 15 -11 8 -25 15 -30 15
-6 0 -2 -7 8 -15z"/>
<path d="M3058 1852 c-13 -5 -15 -11 -8 -22 16 -25 11 -50 -13 -61 -22 -10
-27 -34 -14 -69 3 -8 16 -48 28 -88 16 -52 33 -85 61 -115 l38 -42 -38 60
c-75 118 -84 196 -32 268 43 60 33 91 -22 69z"/>
<path d="M2774 1753 c-21 -22 -12 -25 26 -10 29 13 30 15 11 20 -12 3 -28 -1
-37 -10z"/>
<path d="M8120 1650 c-52 -16 -128 -37 -167 -47 -67 -15 -73 -19 -73 -42 0
-42 11 -71 27 -71 33 0 253 60 306 84 47 21 57 29 57 50 0 65 -13 67 -150 26z"/>
<path d="M1357 1601 c-4 -18 -7 -48 -6 -65 l1 -31 9 34 c6 18 9 47 7 65 l-3
31 -8 -34z"/>
<path d="M7555 1521 c-23 -5 -31 -12 -33 -34 -4 -35 13 -42 68 -27 37 10 41
14 38 38 -3 29 -20 35 -73 23z"/>
<path d="M4785 1270 c3 -5 12 -7 20 -3 21 7 19 13 -6 13 -11 0 -18 -4 -14 -10z"/>
<path d="M7115 1203 c-12 -26 -14 -38 -6 -41 6 -2 11 -8 11 -13 0 -6 -4 -8 -9
-5 -4 3 -11 -37 -14 -89 -6 -103 -19 -133 -72 -159 -16 -9 -24 -16 -16 -16 19
0 75 39 90 61 14 23 33 192 25 223 -3 13 0 34 6 46 6 12 10 24 7 26 -2 3 -12
-12 -22 -33z"/>
<path d="M7226 1174 c-4 -9 -4 -19 -1 -22 6 -6 35 18 35 29 0 16 -28 10 -34
-7z"/>
<path d="M5320 1170 c-8 -5 -12 -11 -9 -14 2 -3 11 -1 19 4 8 5 12 11 9 14 -2
3 -11 1 -19 -4z"/>
<path d="M5245 1140 c-8 -13 5 -13 25 0 13 8 13 10 -2 10 -9 0 -20 -4 -23 -10z"/>
<path d="M0 884 c0 -21 4 -33 10 -29 13 8 13 65 0 65 -5 0 -10 -16 -10 -36z"/>
<path d="M7174 847 c-28 -23 -59 -46 -68 -52 -14 -8 -15 -13 -4 -28 12 -16 16
-15 64 17 53 36 89 80 79 96 -9 15 -16 12 -71 -33z"/>
<path d="M2680 857 c0 -10 78 -87 88 -87 5 0 23 7 38 15 65 34 144 6 217 -75
52 -58 63 -55 18 6 -37 51 -59 70 -104 89 -45 19 -88 19 -131 1 -31 -13 -58
-8 -76 13 -13 15 -50 43 -50 38z"/>
<path d="M6343 728 c-22 -27 -87 -79 -122 -98 -13 -7 -83 -19 -155 -26 -71 -8
-133 -17 -137 -21 -16 -16 177 -1 243 18 69 21 133 58 156 90 7 10 20 25 28
34 9 9 14 18 11 21 -2 3 -13 -5 -24 -18z"/>
<path d="M3149 678 c-35 -18 -66 -33 -68 -34 -1 -2 0 -8 4 -14 4 -7 11 -7 18
-2 25 19 128 43 183 43 60 0 61 9 5 28 -52 17 -73 14 -142 -21z"/>
<path d="M2394 651 c3 -18 6 -61 6 -94 0 -44 3 -58 11 -50 20 20 10 147 -13
168 -8 7 -9 1 -4 -24z"/>
<path d="M6795 649 c-66 -35 -97 -61 -87 -71 5 -5 27 0 55 15 25 14 69 31 97
38 28 7 50 19 50 26 0 21 -70 16 -115 -8z"/>
<path d="M2430 651 c0 -5 5 -13 10 -16 6 -3 10 -2 10 4 0 5 -4 13 -10 16 -5 3
-10 2 -10 -4z"/>
<path d="M2689 630 c-67 -8 -79 -15 -79 -41 0 -27 13 -30 95 -21 69 7 70 7 70
37 0 34 -6 36 -86 25z"/>
<path d="M2960 539 c0 -23 43 -44 110 -55 39 -6 42 -6 38 16 -2 19 -14 27 -68
42 -81 22 -80 22 -80 -3z"/>
<path d="M5779 510 c-63 -47 -115 -96 -79 -75 8 5 38 27 66 50 28 22 59 45 70
51 10 7 17 14 14 17 -3 3 -35 -16 -71 -43z"/>
<path d="M3575 510 c-83 -34 -68 -38 35 -9 41 11 95 24 120 29 44 7 43 8 -20
8 -49 0 -83 -7 -135 -28z"/>
<path d="M6402 433 c-56 -30 -100 -59 -97 -63 13 -20 215 74 215 100 0 20 -20
14 -118 -37z"/>
<path d="M9744 470 c-6 -6 -39 -18 -74 -26 -67 -15 -120 -46 -120 -69 0 -8 -7
-33 -16 -55 -18 -45 -46 -52 -89 -24 -14 9 -25 12 -25 6 0 -6 5 -14 10 -17 13
-8 13 -35 0 -35 -5 0 -37 -18 -71 -40 -81 -52 -93 -55 -133 -31 -18 11 -35 18
-38 16 -3 -3 -11 1 -18 9 -10 13 -14 14 -26 1 -24 -23 -42 -77 -50 -143 l-7
-62 201 0 c134 0 203 4 208 11 15 24 33 114 24 117 -14 5 -12 52 2 52 6 0 8 3
5 6 -8 8 31 64 44 64 5 0 31 21 57 46 26 25 74 64 107 86 33 23 62 43 64 44 2
2 -1 9 -7 16 -6 7 -10 18 -11 23 0 14 -25 17 -37 5z"/>
<path d="M3981 423 c24 -49 57 -60 126 -45 84 19 187 -16 233 -79 25 -34 41
-46 78 -55 44 -12 50 -11 92 15 141 85 227 80 395 -24 41 -25 85 -33 85 -15 0
6 -8 10 -19 10 -10 0 -41 15 -67 33 -72 50 -106 65 -176 82 -55 12 -70 13
-110 0 -26 -7 -60 -23 -76 -35 -16 -12 -46 -27 -67 -35 -49 -16 -80 -6 -118
41 -61 73 -168 112 -239 85 -70 -25 -78 -24 -119 21 l-39 43 21 -42z"/>
<path d="M3305 411 c-9 -16 96 -89 142 -99 35 -8 77 -1 63 11 -7 5 -190 97
-195 97 -2 0 -6 -4 -10 -9z"/>
<path d="M5572 400 c-29 -4 -56 -11 -60 -15 -10 -11 111 4 122 15 6 6 6 10 1
9 -6 -1 -34 -5 -63 -9z"/>
<path d="M6060 333 c-67 -11 -120 -35 -120 -54 0 -23 -3 -23 94 1 43 11 80 20
82 20 2 0 4 9 4 20 0 20 -7 22 -60 13z"/>
<path d="M3823 258 c-41 -9 -59 -34 -30 -42 45 -13 194 -23 205 -14 18 16 -1
34 -55 52 -52 18 -60 18 -120 4z"/>
<path d="M5585 221 c-63 -22 -80 -32 -80 -47 0 -25 35 -23 128 7 58 19 68 25
65 43 -4 29 -21 29 -113 -3z"/>
<path d="M9550 194 c0 -8 5 -12 10 -9 6 3 10 10 10 16 0 5 -4 9 -10 9 -5 0
-10 -7 -10 -16z"/>
<path d="M4194 185 c-11 -28 4 -42 52 -50 26 -4 58 -11 72 -16 l25 -10 -26
-27 c-14 -15 -30 -39 -36 -54 l-11 -28 476 0 c447 0 475 1 472 17 -6 30 -76
56 -163 61 -60 3 -84 9 -97 23 -22 23 -22 29 -2 44 15 11 16 12 1 18 -11 4
-33 -8 -62 -33 -43 -37 -49 -40 -106 -38 -47 1 -62 -2 -72 -17 -13 -16 -14
-16 -20 -1 -9 23 -27 20 -27 -4 0 -26 -14 -25 -64 4 -43 24 -105 37 -191 40
-44 1 -50 4 -53 23 -3 18 -14 26 -55 37 -97 27 -107 28 -113 11z"/>
<path d="M9530 154 c0 -8 5 -12 10 -9 6 4 8 11 5 16 -9 14 -15 11 -15 -7z"/>
<path d="M5270 141 c-53 -17 -92 -42 -86 -57 3 -9 6 -18 6 -20 0 -17 131 33
145 56 4 7 2 16 -6 21 -16 10 -25 10 -59 0z"/>
<path d="M4620 80 c0 -5 5 -10 10 -10 6 0 10 5 10 10 0 6 -4 10 -10 10 -5 0
-10 -4 -10 -10z"/>
</g>
</svg>
